<svg version="1" xmlns="http://www.w3.org/2000/svg" width="373.333" height="373.333" viewBox="0 0 280.000000 280.000000"><path d="M0 140v140.2l64.3-.5c35.3-.2 65.3-.7 66.7-1 1.4-.3 5.7-.8 9.5-1.2 3.9-.3 7.9-.8 9-1 1.1-.3 3.8-.7 6-1 14.6-1.9 34.9-7.3 48.9-13 23.7-9.5 41.3-23.1 53.8-41.4 15.1-22.1 21.8-48.4 21.3-83.6-.2-9.9-.6-19.6-.9-21.5-.3-1.9-.8-5.1-1.1-7-1.6-10.6-4.1-19.7-8.3-30.2-1.7-4.2-5-10.7-7.3-14.5-2.3-3.7-5-8.2-5.8-10-.9-1.8-2-3.2-2.4-3.3-.4 0-3.3-2.6-6.5-5.8-15.9-16.2-35.3-26.9-62.7-34.6-11.1-3.1-33.3-7.2-44-8.1-4.4-.4-9.3-1-11-1.2C127.9 1 98 .5 63.3.3L0-.2V140zM128.5 32.4c24.5 3 40.9 7.2 54 13.8 8.8 4.4 8.8 4.8.2 4.8H175v49.1c0 26.9.3 48.8.8 48.6 9.2-4.8 20.2-8.6 27.3-9.3 16.2-1.6 29 10 27.5 24.8-.7 7.5-4.1 20.2-6.9 25.8-3.5 7.2-12.8 10.2-24.4 7.8-6.2-1.3-17.9-6.8-23.7-11.3-2.6-1.9-4.8-3.5-5.1-3.5-.3 0-.5 7.8-.5 17.4v17.4l4.3 2.2c2.3 1.3 7.7 3.5 12.1 5l7.8 2.7-8.8 4.5c-13.9 7.1-29.7 11.8-47.8 14.3-2.3.3-5.9.8-8.1 1.1-2.2.3-22.1.8-44.2 1.1l-40.3.5V30.8l39.3.5c21.5.3 41.5.8 44.2 1.1zm96 58.9c1.4 4 3.2 9.8 4 13l1.4 5.8-3-.6c-5.7-1.3-14.2-1.2-19.8.1-3.1.7-5.7 1.2-5.8 1-.2-.2-.5-16.2-.4-22.3l.1-4.2 10.4.1h10.5l2.6 7.1z"/><path d="M85.5 48.2c-4.9.4-11 1.2-13.5 1.8-7.6 1.8-15.4 4.3-16.5 5.2-.8.7-1.6 32.8-.9 32.8.1 0 2.8-1.3 6-2.9a67.3 67.3 0 0 1 16.9-5.7c1.1-.3 5-.5 8.6-.5 14.7-.1 22.8 8.4 21.7 23-.6 8.6-3.3 13.1-10 16.4-4.9 2.5-6.6 2.8-16.2 3-5.8 0-10.7.3-10.7.7-.1.3-.2 6.7-.3 14.2-.1 13.2 0 13.8 1.9 13.9 1.1.1 5.4.2 9.5.4 12.9.4 20 2.9 24.3 8.7 6.6 8.8 6.1 24.5-1.1 32.2-4.5 4.7-10.6 6.8-20.2 6.9-10.3.2-19.4-2.4-29.2-8.2l-6.8-4v34.7l5.2 2c6.4 2.5 11.2 4 15.3 4.7 1.7.2 4.1.7 5.5 1 3.6.9 18.6.8 24.9 0 21.4-2.7 36.3-15 41-33.8 2.2-8.5 2.7-24.8 1-32.7-2.7-12.6-10.4-23.6-19.6-28.1l-4.6-2.2 3.9-2c9.3-4.6 16.3-15.1 17.9-26.7 4.5-31.5-9.7-51.9-37.8-54.6-3.4-.3-6.4-.7-6.7-.8-.3-.1-4.5.1-9.5.6z"/></svg>