<svg xmlns="http://www.w3.org/2000/svg" version="1.1" width="1024" height="682">
<rect x="0" y="0" width="1024" height="682" fill="#8f6c59" />
<g transform="scale(4.266667) translate(0.5 0.5)">
<polygon fill="#ffcc90" fill-opacity="0.501961" points="119,86 255,-1 -16,0" />
<polygon fill="#2d2e3b" fill-opacity="0.501961" points="-16,83 242,160 245,80" />
<polygon fill="#2b2930" fill-opacity="0.501961" points="8,47 98,175 -16,156" />
<polygon fill="#e1733f" fill-opacity="0.501961" points="115,175 199,102 68,103" />
<polygon fill="#193650" fill-opacity="0.501961" points="255,101 84,100 255,55" />
<polygon fill="#f9894c" fill-opacity="0.501961" points="107,25 175,82 75,82" />
<polygon fill="#13354f" fill-opacity="0.501961" points="152,101 31,69 -16,103" />
<polygon fill="#954e32" fill-opacity="0.501961" points="57,175 244,160 35,105" />
<polygon fill="#a78976" fill-opacity="0.501961" points="255,33 138,72 228,-16" />
<polygon fill="#ab8971" fill-opacity="0.501961" points="10,-16 -16,38 103,73" />
<polygon fill="#d7b98e" fill-opacity="0.501961" points="197,-2 117,54 28,-16" />
<polygon fill="#443630" fill-opacity="0.501961" points="250,103 168,153 236,175" />
<polygon fill="#d47d4c" fill-opacity="0.501961" points="120,175 150,103 90,105" />
<polygon fill="#76555a" fill-opacity="0.501961" points="134,83 255,43 224,83" />
<polygon fill="#75595b" fill-opacity="0.501961" points="-16,39 -16,73 103,86" />
<polygon fill="#795448" fill-opacity="0.501961" points="167,175 224,101 157,102" />
<polygon fill="#c77458" fill-opacity="0.501961" points="140,48 209,41 136,84" />
<polygon fill="#a59b85" fill-opacity="0.501961" points="-16,1 18,36 109,-16" />
<polygon fill="#eba15f" fill-opacity="0.501961" points="81,28 166,37 118,83" />
<polygon fill="#c37157" fill-opacity="0.501961" points="37,33 111,66 73,78" />
<polygon fill="#806455" fill-opacity="0.501961" points="117,101 10,105 51,128" />
<polygon fill="#a69983" fill-opacity="0.501961" points="204,44 155,-16 255,3" />
<polygon fill="#1d364a" fill-opacity="0.501961" points="1,103 -16,72 99,100" />
<polygon fill="#433731" fill-opacity="0.501961" points="-16,111 7,175 35,140" />
<polygon fill="#ff9546" fill-opacity="0.501961" points="90,78 123,57 135,83" />
<polygon fill="#1d364a" fill-opacity="0.501961" points="255,100 158,100 222,81" />
<polygon fill="#916e5b" fill-opacity="0.501961" points="158,120 220,104 116,101" />
<polygon fill="#78493e" fill-opacity="0.501961" points="217,152 148,134 178,112" />
<polygon fill="#4b4f54" fill-opacity="0.501961" points="46,84 5,85 -16,52" />
<polygon fill="#38444f" fill-opacity="0.501961" points="47,84 154,83 108,102" />
<polygon fill="#a3625b" fill-opacity="0.501961" points="189,78 187,51 142,80" />
<polygon fill="#9f836b" fill-opacity="0.501961" points="-3,0 52,39 8,60" />
<polygon fill="#bf673c" fill-opacity="0.501961" points="127,111 158,175 60,175" />
<polygon fill="#bc7b54" fill-opacity="0.501961" points="168,107 60,105 116,123" />
<polygon fill="#955f59" fill-opacity="0.501961" points="104,82 7,39 53,78" />
<polygon fill="#4e413c" fill-opacity="0.501961" points="255,107 184,122 224,175" />
<polygon fill="#68493f" fill-opacity="0.501961" points="75,125 42,175 17,115" />
<polygon fill="#8e5441" fill-opacity="0.501961" points="64,156 65,103 105,173" />
<polygon fill="#a18770" fill-opacity="0.501961" points="255,-16 239,33 169,54" />
<polygon fill="#d9a472" fill-opacity="0.501961" points="83,54 78,21 164,30" />
<polygon fill="#caae8d" fill-opacity="0.501961" points="47,2 182,23 207,-16" />
<polygon fill="#795f59" fill-opacity="0.501961" points="-16,26 -16,60 63,80" />
<polygon fill="#dc895a" fill-opacity="0.501961" points="144,64 95,73 63,41" />
<polygon fill="#91523e" fill-opacity="0.501961" points="158,112 192,170 139,175" />
<polygon fill="#d67642" fill-opacity="0.501961" points="108,113 132,115 121,149" />
<polygon fill="#ffab47" fill-opacity="0.501961" points="104,72 116,82 145,76" />
<polygon fill="#6b5a58" fill-opacity="0.501961" points="229,72 255,41 164,83" />
<polygon fill="#715c50" fill-opacity="0.501961" points="249,104 182,101 173,121" />
<polygon fill="#b88b69" fill-opacity="0.501961" points="52,54 14,26 87,44" />
<polygon fill="#93624f" fill-opacity="0.501961" points="51,103 91,135 89,103" />
<polygon fill="#c19d7a" fill-opacity="0.501961" points="162,3 149,49 203,17" />
<polygon fill="#494d52" fill-opacity="0.501961" points="224,88 238,63 201,85" />
<polygon fill="#a95d44" fill-opacity="0.501961" points="151,175 132,120 155,112" />
<polygon fill="#2d3d4b" fill-opacity="0.501961" points="35,81 111,101 69,103" />
<polygon fill="#e27d52" fill-opacity="0.501961" points="129,59 128,80 154,78" />
<polygon fill="#866b67" fill-opacity="0.501961" points="255,48 255,23 183,65" />
<polygon fill="#bca385" fill-opacity="0.501961" points="78,6 67,28 -14,-16" />
<polygon fill="#ac6042" fill-opacity="0.501961" points="84,146 122,175 97,108" />
<polygon fill="#65564c" fill-opacity="0.501961" points="-16,131 14,104 65,102" />
<polygon fill="#2f3f4c" fill-opacity="0.501961" points="177,81 108,102 192,100" />
<polygon fill="#967361" fill-opacity="0.501961" points="-16,49 68,63 5,34" />
<polygon fill="#6a493f" fill-opacity="0.501961" points="164,175 187,116 219,144" />
<polygon fill="#c58965" fill-opacity="0.501961" points="162,36 134,65 207,35" />
<polygon fill="#d9ae7f" fill-opacity="0.501961" points="109,39 162,16 96,6" />
<polygon fill="#5a4339" fill-opacity="0.501961" points="18,175 16,122 50,140" />
<polygon fill="#c36e59" fill-opacity="0.501961" points="106,83 80,54 77,72" />
<polygon fill="#182e41" fill-opacity="0.501961" points="-16,102 -14,85 40,101" />
<polygon fill="#423a3a" fill-opacity="0.501961" points="234,175 225,127 255,105" />
<polygon fill="#805957" fill-opacity="0.501961" points="210,70 178,65 173,83" />
<polygon fill="#9c7564" fill-opacity="0.501961" points="204,38 239,41 173,64" />
<polygon fill="#b76a59" fill-opacity="0.501961" points="170,74 142,81 151,59" />
<polygon fill="#9a8f7e" fill-opacity="0.501961" points="255,3 233,29 214,-15" />
<polygon fill="#665453" fill-opacity="0.501961" points="20,82 52,71 15,62" />
<polygon fill="#b87c59" fill-opacity="0.501961" points="94,103 130,114 134,103" />
<polygon fill="#9f957f" fill-opacity="0.501961" points="-16,6 42,-16 2,25" />
<polygon fill="#7f503f" fill-opacity="0.501961" points="171,175 201,172 165,116" />
<polygon fill="#4b4e53" fill-opacity="0.501961" points="59,82 89,81 76,88" />
<polygon fill="#e7a165" fill-opacity="0.501961" points="140,43 121,63 79,43" />
<polygon fill="#b5a087" fill-opacity="0.501961" points="181,-8 189,20 251,-16" />
<polygon fill="#cf9367" fill-opacity="0.501961" points="100,44 95,60 56,33" />
<polygon fill="#7b5d4f" fill-opacity="0.501961" points="23,123 39,104 79,104" />
<polygon fill="#af886c" fill-opacity="0.501961" points="213,40 203,23 165,50" />
<polygon fill="#9a6d55" fill-opacity="0.501961" points="160,115 134,103 188,107" />
<polygon fill="#d1b48f" fill-opacity="0.501961" points="158,2 92,-15 94,13" />
<polygon fill="#a56e5e" fill-opacity="0.501961" points="90,71 27,39 46,62" />
<polygon fill="#3b444e" fill-opacity="0.501961" points="173,85 85,85 114,101" />
<polygon fill="#7d5143" fill-opacity="0.501961" points="55,116 62,160 79,127" />
<polygon fill="#caa47c" fill-opacity="0.501961" points="104,35 73,31 59,5" />
<polygon fill="#8a584b" fill-opacity="0.501961" points="199,112 170,110 146,127" />
<polygon fill="#3a4652" fill-opacity="0.501961" points="199,91 164,82 232,81" />
<polygon fill="#98553e" fill-opacity="0.501961" points="74,159 98,148 83,121" />
<polygon fill="#554239" fill-opacity="0.501961" points="245,151 208,127 197,173" />
<polygon fill="#ffb147" fill-opacity="0.501961" points="134,77 116,71 109,79" />
<polygon fill="#694a3e" fill-opacity="0.501961" points="59,136 38,175 39,119" />
<polygon fill="#cfa47b" fill-opacity="0.501961" points="138,44 173,24 147,9" />
<polygon fill="#605850" fill-opacity="0.501961" points="235,115 199,102 255,101" />
<polygon fill="#d07e5a" fill-opacity="0.501961" points="143,78 160,52 135,60" />
<polygon fill="#b99775" fill-opacity="0.501961" points="53,13 22,19 73,40" />
<polygon fill="#534d4b" fill-opacity="0.501961" points="-3,104 30,102 -16,123" />
<polygon fill="#c97f50" fill-opacity="0.501961" points="105,109 141,109 118,118" />
<polygon fill="#514540" fill-opacity="0.501961" points="31,146 28,123 -16,120" />
<polygon fill="#605454" fill-opacity="0.501961" points="235,75 190,82 255,47" />
<polygon fill="#a76c4f" fill-opacity="0.501961" points="98,123 69,115 97,104" />
<polygon fill="#ffeb9f" fill-opacity="0.501961" points="116,80 119,81 115,82" />
<polygon fill="#1b2e41" fill-opacity="0.501961" points="255,89 255,100 217,99" />
<polygon fill="#33434f" fill-opacity="0.501961" points="61,81 5,81 33,91" />
<polygon fill="#aa643e" fill-opacity="0.501961" points="154,145 57,167 112,175" />
<polygon fill="#453c37" fill-opacity="0.501961" points="-16,107 7,175 13,139" />
<polygon fill="#4e4c50" fill-opacity="0.501961" points="-16,77 -8,64 35,82" />
<polygon fill="#ac8f73" fill-opacity="0.501961" points="37,16 8,20 48,42" />
<polygon fill="#c36c3e" fill-opacity="0.501961" points="105,113 130,156 104,149" />
<polygon fill="#6d5549" fill-opacity="0.501961" points="35,105 47,125 12,119" />
<polygon fill="#84655c" fill-opacity="0.501961" points="18,64 -16,42 52,63" />
<polygon fill="#7d5754" fill-opacity="0.501961" points="40,64 40,76 77,81" />
<polygon fill="#e17e53" fill-opacity="0.501961" points="107,73 87,78 100,67" />
<polygon fill="#8a6451" fill-opacity="0.501961" points="93,102 47,119 58,104" />
<polygon fill="#ba755d" fill-opacity="0.501961" points="148,62 152,71 181,48" />
<polygon fill="#243849" fill-opacity="0.501961" points="16,101 -16,77 65,97" />
<polygon fill="#907b6b" fill-opacity="0.501961" points="213,47 255,37 255,7" />
<polygon fill="#f88949" fill-opacity="0.501961" points="117,80 101,75 105,81" />
<polygon fill="#f49553" fill-opacity="0.501961" points="138,77 104,69 112,54" />
<polygon fill="#d79164" fill-opacity="0.501961" points="129,60 158,38 153,57" />
<polygon fill="#ba9576" fill-opacity="0.501961" points="170,41 212,24 180,21" />
<polygon fill="#af545c" fill-opacity="0.501961" points="129,80 136,82 126,83" />
<polygon fill="#a1866d" fill-opacity="0.501961" points="-16,21 41,46 21,23" />
<polygon fill="#ae9e86" fill-opacity="0.501961" points="46,2 22,11 -5,-16" />
<polygon fill="#2c3e4e" fill-opacity="0.501961" points="215,98 178,88 255,83" />
<polygon fill="#714e48" fill-opacity="0.501961" points="165,128 198,121 183,114" />
<polygon fill="#504343" fill-opacity="0.501961" points="193,127 210,137 255,108" />
<polygon fill="#2d3e4c" fill-opacity="0.501961" points="60,89 105,89 92,102" />
<polygon fill="#995944" fill-opacity="0.501961" points="147,123 158,115 154,158" />
<polygon fill="#c5ab8c" fill-opacity="0.501961" points="193,-3 119,-16 162,11" />
<polygon fill="#444c53" fill-opacity="0.501961" points="46,86 46,79 71,85" />
<polygon fill="#a76a5d" fill-opacity="0.501961" points="152,68 164,77 181,55" />
<polygon fill="#b16658" fill-opacity="0.501961" points="76,77 70,60 91,81" />
<polygon fill="#494b51" fill-opacity="0.501961" points="142,90 165,83 128,84" />
<polygon fill="#b76644" fill-opacity="0.501961" points="132,118 131,164 147,114" />
<polygon fill="#2d3e4e" fill-opacity="0.501961" points="126,93 203,88 166,101" />
<polygon fill="#c7ab88" fill-opacity="0.501961" points="52,7 84,16 100,-5" />
<polygon fill="#8f5e59" fill-opacity="0.501961" points="157,80 176,80 199,56" />
<polygon fill="#614740" fill-opacity="0.501961" points="184,126 205,113 216,175" />
<polygon fill="#514a50" fill-opacity="0.501961" points="238,72 243,82 206,82" />
<polygon fill="#886755" fill-opacity="0.501961" points="202,104 162,105 176,113" />
<polygon fill="#c78863" fill-opacity="0.501961" points="59,42 96,66 83,49" />
<polygon fill="#8a523f" fill-opacity="0.501961" points="69,143 79,175 81,122" />
<polygon fill="#a7967f" fill-opacity="0.501961" points="212,5 255,-16 212,24" />
<polygon fill="#635656" fill-opacity="0.501961" points="-11,53 4,71 36,74" />
<polygon fill="#574e54" fill-opacity="0.501961" points="95,81 83,81 89,87" />
<polygon fill="#e17253" fill-opacity="0.501961" points="125,79 115,83 136,81" />
<polygon fill="#a15a55" fill-opacity="0.501961" points="134,82 157,77 148,83" />
</g>
</svg>