<svg xmlns="http://www.w3.org/2000/svg" version="1.1" width="1024" height="921">
<rect x="0" y="0" width="1024" height="921" fill="#add1d7" />
<g transform="scale(6.400000) translate(0.5 0.5)">
<polygon fill="#000000" fill-opacity="0.501961" points="44,98 75,15 137,81" />
<polygon fill="#ffffff" fill-opacity="0.501961" points="175,137 -16,62 2,159" />
<polygon fill="#151d00" fill-opacity="0.501961" points="96,102 40,59 123,44" />
<polygon fill="#e6ffff" fill-opacity="0.501961" points="82,159 175,155 155,-5" />
<polygon fill="#adfcff" fill-opacity="0.501961" points="175,5 2,-16 -5,57" />
<polygon fill="#5c7200" fill-opacity="0.501961" points="46,81 51,35 110,41" />
<polygon fill="#000000" fill-opacity="0.501961" points="110,90 57,93 122,52" />
<polygon fill="#e2f9ff" fill-opacity="0.501961" points="2,143 161,59 175,151" />
<polygon fill="#a5eeff" fill-opacity="0.501961" points="175,117 158,-16 72,-2" />
<polygon fill="#cbf9ff" fill-opacity="0.501961" points="63,120 14,-16 -16,141" />
<polygon fill="#111808" fill-opacity="0.501961" points="70,95 108,90 100,37" />
<polygon fill="#aae3ff" fill-opacity="0.501961" points="1,60 149,-1 -1,-16" />
<polygon fill="#6d8328" fill-opacity="0.501961" points="59,96 76,24 42,61" />
<polygon fill="#0e1c09" fill-opacity="0.501961" points="113,45 118,81 86,39" />
<polygon fill="#def1ff" fill-opacity="0.501961" points="137,83 175,151 1,117" />
<polygon fill="#bff2ff" fill-opacity="0.501961" points="175,81 124,107 117,6" />
<polygon fill="#6a5150" fill-opacity="0.501961" points="78,116 80,130 74,144" />
<polygon fill="#6b7e36" fill-opacity="0.501961" points="45,47 93,73 50,84" />
<polygon fill="#c7f2ff" fill-opacity="0.501961" points="-16,29 -10,86 97,124" />
<polygon fill="#000100" fill-opacity="0.501961" points="101,93 114,57 122,68" />
<polygon fill="#a5e5ff" fill-opacity="0.501961" points="-13,-1 157,51 175,-1" />
<polygon fill="#9bb63e" fill-opacity="0.501961" points="86,29 104,39 61,35" />
<polygon fill="#424d2f" fill-opacity="0.501961" points="67,35 80,103 86,42" />
<polygon fill="#bdf0ff" fill-opacity="0.501961" points="50,8 41,81 -16,93" />
<polygon fill="#bad344" fill-opacity="0.501961" points="44,48 46,73 54,49" />
<polygon fill="#d6f5ff" fill-opacity="0.501961" points="145,69 76,144 86,101" />
<polygon fill="#b6efff" fill-opacity="0.501961" points="113,46 175,70 110,16" />
<polygon fill="#42522c" fill-opacity="0.501961" points="69,95 65,42 52,89" />
<polygon fill="#cbb399" fill-opacity="0.501961" points="83,106 78,118 78,93" />
<polygon fill="#809b48" fill-opacity="0.501961" points="86,58 72,46 89,48" />
<polygon fill="#0b0d00" fill-opacity="0.501961" points="81,92 71,94 67,82" />
<polygon fill="#e5f4ff" fill-opacity="0.501961" points="79,159 54,90 -16,137" />
<polygon fill="#0e1510" fill-opacity="0.501961" points="115,80 105,42 84,95" />
<polygon fill="#8ea659" fill-opacity="0.501961" points="64,58 70,49 72,76" />
<polygon fill="#ccf2ff" fill-opacity="0.501961" points="129,61 175,100 103,109" />
<polygon fill="#daf0c7" fill-opacity="0.501961" points="72,22 93,29 68,30" />
<polygon fill="#9ebc60" fill-opacity="0.501961" points="58,75 54,65 60,61" />
<polygon fill="#03160b" fill-opacity="0.501961" points="80,45 63,42 68,48" />
<polygon fill="#57693e" fill-opacity="0.501961" points="93,71 89,49 85,70" />
<polygon fill="#d2f1ff" fill-opacity="0.501961" points="2,127 -16,89 72,95" />
<polygon fill="#aace63" fill-opacity="0.501961" points="84,30 75,36 71,45" />
<polygon fill="#e3f7ff" fill-opacity="0.501961" points="83,96 76,159 102,93" />
<polygon fill="#2a3d20" fill-opacity="0.501961" points="88,35 105,65 120,56" />
<polygon fill="#618156" fill-opacity="0.501961" points="114,46 94,42 99,37" />
<polygon fill="#c5d47b" fill-opacity="0.501961" points="68,31 60,43 50,42" />
<polygon fill="#a9e4ff" fill-opacity="0.501961" points="115,-16 -16,12 56,38" />
<polygon fill="#9cc351" fill-opacity="0.501961" points="54,88 47,79 52,74" />
<polygon fill="#111410" fill-opacity="0.501961" points="84,95 87,73 114,84" />
<polygon fill="#c3eeff" fill-opacity="0.501961" points="21,38 -16,92 62,105" />
<polygon fill="#73686f" fill-opacity="0.501961" points="76,147 78,135 63,159" />
<polygon fill="#152316" fill-opacity="0.501961" points="76,65 74,47 69,55" />
<polygon fill="#c4effe" fill-opacity="0.501961" points="173,37 175,94 103,93" />
<polygon fill="#192008" fill-opacity="0.501961" points="66,84 70,80 77,96" />
<polygon fill="#a5e4ff" fill-opacity="0.501961" points="175,1 119,54 110,-9" />
<polygon fill="#998b83" fill-opacity="0.501961" points="78,116 81,110 79,121" />
<polygon fill="#ecf6f8" fill-opacity="0.501961" points="79,94 62,142 77,122" />
<polygon fill="#b7eaff" fill-opacity="0.501961" points="-1,18 1,72 51,44" />
<polygon fill="#6c813f" fill-opacity="0.501961" points="85,43 93,47 71,64" />
<polygon fill="#2b3221" fill-opacity="0.501961" points="93,94 71,57 78,87" />
<polygon fill="#919d65" fill-opacity="0.501961" points="76,75 76,60 80,69" />
</g>
</svg>