<svg xmlns="http://www.w3.org/2000/svg" version="1.1" width="1024" height="682">
<rect x="0" y="0" width="1024" height="682" fill="#7f99aa" />
<g transform="scale(4.266667) translate(0.5 0.5)">
<polygon fill="#8e4913" fill-opacity="0.501961" points="82,50 133,163 125,18" />
<polygon fill="#5e0e00" fill-opacity="0.501961" points="219,175 194,111 211,45" />
<polygon fill="#7d0900" fill-opacity="0.501961" points="44,175 45,64 28,116" />
<polygon fill="#730800" fill-opacity="0.501961" points="102,175 84,129 98,68" />
<polygon fill="#318ddb" fill-opacity="0.501961" points="255,-8 16,-15 247,77" />
<polygon fill="#eaf1df" fill-opacity="0.501961" points="94,78 116,45 116,159" />
<polygon fill="#c5dee2" fill-opacity="0.501961" points="41,149 85,32 91,175" />
<polygon fill="#fce7c2" fill-opacity="0.501961" points="170,164 204,171 197,52" />
<polygon fill="#9f4a0b" fill-opacity="0.501961" points="169,119 115,152 174,175" />
<polygon fill="#d8e6e3" fill-opacity="0.501961" points="31,67 -16,145 30,175" />
<polygon fill="#8cc4e7" fill-opacity="0.501961" points="126,40 146,160 200,52" />
<polygon fill="#4ca3e3" fill-opacity="0.501961" points="107,17 2,-14 -16,90" />
<polygon fill="#491b00" fill-opacity="0.501961" points="125,97 129,21 108,17" />
<polygon fill="#370900" fill-opacity="0.501961" points="106,34 86,49 94,89" />
<polygon fill="#722800" fill-opacity="0.501961" points="44,56 44,134 29,79" />
<polygon fill="#541000" fill-opacity="0.501961" points="153,121 169,175 169,121" />
<polygon fill="#82bee6" fill-opacity="0.501961" points="92,27 45,55 46,175" />
<polygon fill="#ffdaa2" fill-opacity="0.501961" points="133,166 98,175 112,108" />
<polygon fill="#ffe7ad" fill-opacity="0.501961" points="144,158 152,105 160,161" />
<polygon fill="#230000" fill-opacity="0.501961" points="141,175 130,134 144,137" />
<polygon fill="#ffe59a" fill-opacity="0.501961" points="104,14 77,56 109,28" />
<polygon fill="#82bfed" fill-opacity="0.501961" points="220,175 255,124 213,45" />
<polygon fill="#4d1e00" fill-opacity="0.501961" points="197,175 214,100 218,175" />
<polygon fill="#6c3400" fill-opacity="0.501961" points="99,66 85,96 99,143" />
<polygon fill="#6eabd5" fill-opacity="0.501961" points="118,6 185,40 193,175" />
<polygon fill="#64b8f5" fill-opacity="0.501961" points="96,69 109,42 109,116" />
<polygon fill="#511b04" fill-opacity="0.501961" points="117,131 131,137 128,83" />
<polygon fill="#8ebee1" fill-opacity="0.501961" points="-1,175 -16,30 33,79" />
<polygon fill="#612a00" fill-opacity="0.501961" points="101,156 94,109 84,175" />
<polygon fill="#9c5d19" fill-opacity="0.501961" points="46,147 30,85 29,175" />
<polygon fill="#ffcd79" fill-opacity="0.501961" points="93,75 84,107 84,47" />
<polygon fill="#ffcb74" fill-opacity="0.501961" points="80,175 91,147 83,112" />
<polygon fill="#ffc37b" fill-opacity="0.501961" points="187,72 203,62 196,127" />
<polygon fill="#e0c39b" fill-opacity="0.501961" points="31,162 34,65 18,107" />
<polygon fill="#ffbd70" fill-opacity="0.501961" points="202,175 205,131 190,119" />
<polygon fill="#5e9ac6" fill-opacity="0.501961" points="128,59 131,-4 255,65" />
<polygon fill="#99c1d9" fill-opacity="0.501961" points="130,73 130,136 192,100" />
<polygon fill="#502d0a" fill-opacity="0.501961" points="213,69 198,128 216,123" />
<polygon fill="#79afd5" fill-opacity="0.501961" points="29,43 25,137 -16,48" />
<polygon fill="#9ed1f4" fill-opacity="0.501961" points="101,175 101,99 112,137" />
<polygon fill="#180000" fill-opacity="0.501961" points="104,35 108,43 81,57" />
<polygon fill="#efb877" fill-opacity="0.501961" points="115,77 105,21 120,50" />
<polygon fill="#1e0906" fill-opacity="0.501961" points="129,32 119,61 118,30" />
<polygon fill="#854312" fill-opacity="0.501961" points="29,61 42,60 44,99" />
<polygon fill="#629fc8" fill-opacity="0.501961" points="93,-16 79,98 8,20" />
<polygon fill="#95c0de" fill-opacity="0.501961" points="171,175 191,139 171,77" />
<polygon fill="#fec98a" fill-opacity="0.501961" points="130,136 114,175 110,133" />
<polygon fill="#9d6a32" fill-opacity="0.501961" points="204,64 204,116 197,90" />
<polygon fill="#4d1a06" fill-opacity="0.501961" points="119,73 119,114 125,93" />
<polygon fill="#693c21" fill-opacity="0.501961" points="89,86 98,49 100,118" />
<polygon fill="#a3c3d8" fill-opacity="0.501961" points="86,164 45,65 44,168" />
<polygon fill="#ffe1b2" fill-opacity="0.501961" points="86,46 90,30 114,28" />
<polygon fill="#fff3cf" fill-opacity="0.501961" points="199,117 189,91 193,146" />
<polygon fill="#623823" fill-opacity="0.501961" points="31,140 46,143 34,98" />
<polygon fill="#ffd59b" fill-opacity="0.501961" points="109,117 119,83 110,53" />
<polygon fill="#4d8cc2" fill-opacity="0.501961" points="235,-16 42,6 251,41" />
<polygon fill="#ffc170" fill-opacity="0.501961" points="82,113 85,95 91,129" />
<polygon fill="#629cce" fill-opacity="0.501961" points="255,47 235,104 200,41" />
<polygon fill="#553524" fill-opacity="0.501961" points="126,157 154,173 130,136" />
<polygon fill="#c78443" fill-opacity="0.501961" points="78,49 88,49 94,70" />
<polygon fill="#db9a52" fill-opacity="0.501961" points="156,119 160,152 151,151" />
<polygon fill="#e5d5bc" fill-opacity="0.501961" points="155,175 140,127 153,122" />
<polygon fill="#512c1d" fill-opacity="0.501961" points="128,84 126,44 116,89" />
<polygon fill="#90bad7" fill-opacity="0.501961" points="82,63 49,71 82,153" />
<polygon fill="#fff9bf" fill-opacity="0.501961" points="24,175 32,162 26,140" />
<polygon fill="#43260f" fill-opacity="0.501961" points="208,62 215,86 202,85" />
<polygon fill="#9abbd0" fill-opacity="0.501961" points="250,150 217,110 219,174" />
<polygon fill="#e3aa6e" fill-opacity="0.501961" points="110,125 118,94 119,138" />
<polygon fill="#5d402b" fill-opacity="0.501961" points="215,104 197,123 213,170" />
<polygon fill="#87b3d0" fill-opacity="0.501961" points="179,101 127,40 132,132" />
<polygon fill="#321201" fill-opacity="0.501961" points="99,69 90,49 99,39" />
<polygon fill="#f1b36b" fill-opacity="0.501961" points="29,67 31,88 37,59" />
<polygon fill="#975117" fill-opacity="0.501961" points="97,26 106,15 108,19" />
<polygon fill="#5896c3" fill-opacity="0.501961" points="136,-16 -16,2 78,42" />
<polygon fill="#fff2dd" fill-opacity="0.501961" points="84,90 83,71 90,69" />
<polygon fill="#fad09d" fill-opacity="0.501961" points="192,115 193,170 203,132" />
<polygon fill="#609bc5" fill-opacity="0.501961" points="126,-8 216,65 125,28" />
<polygon fill="#8ab3cf" fill-opacity="0.501961" points="188,69 191,151 157,105" />
<polygon fill="#e0b47a" fill-opacity="0.501961" points="201,99 193,121 203,117" />
<polygon fill="#572f16" fill-opacity="0.501961" points="167,142 150,148 166,148" />
<polygon fill="#ffe0b2" fill-opacity="0.501961" points="189,67 191,102 198,76" />
<polygon fill="#cc9b67" fill-opacity="0.501961" points="121,175 121,134 130,148" />
<polygon fill="#80b7db" fill-opacity="0.501961" points="112,52 100,58 101,94" />
<polygon fill="#552f19" fill-opacity="0.501961" points="156,123 169,121 171,161" />
<polygon fill="#250700" fill-opacity="0.501961" points="131,32 127,38 123,28" />
<polygon fill="#75431a" fill-opacity="0.501961" points="123,23 115,35 105,17" />
<polygon fill="#94caf4" fill-opacity="0.501961" points="144,133 150,150 144,160" />
<polygon fill="#ae7e55" fill-opacity="0.501961" points="195,72 200,64 206,91" />
<polygon fill="#553624" fill-opacity="0.501961" points="45,84 36,114 35,65" />
<polygon fill="#603720" fill-opacity="0.501961" points="101,116 87,146 96,175" />
<polygon fill="#ca9862" fill-opacity="0.501961" points="206,159 201,127 194,175" />
<polygon fill="#92b9d2" fill-opacity="0.501961" points="132,86 131,118 188,123" />
<polygon fill="#8c6a4f" fill-opacity="0.501961" points="98,82 89,86 90,52" />
<polygon fill="#98bdd8" fill-opacity="0.501961" points="-15,79 27,90 23,173" />
<polygon fill="#fff3cf" fill-opacity="0.501961" points="107,28 90,33 107,21" />
<polygon fill="#6da5cb" fill-opacity="0.501961" points="-16,50 73,64 94,18" />
<polygon fill="#90bad4" fill-opacity="0.501961" points="100,90 103,144 111,123" />
<polygon fill="#ffc783" fill-opacity="0.501961" points="26,113 27,141 33,132" />
<polygon fill="#8a502e" fill-opacity="0.501961" points="22,175 45,164 44,138" />
<polygon fill="#fffde8" fill-opacity="0.501961" points="119,172 110,164 110,143" />
<polygon fill="#69a0c8" fill-opacity="0.501961" points="181,68 227,57 125,26" />
<polygon fill="#9abdd3" fill-opacity="0.501961" points="170,150 184,110 193,175" />
<polygon fill="#447ec0" fill-opacity="0.501961" points="245,27 135,-16 255,-6" />
<polygon fill="#fbe0bb" fill-opacity="0.501961" points="109,131 116,111 110,90" />
<polygon fill="#492513" fill-opacity="0.501961" points="142,137 145,175 123,175" />
<polygon fill="#98c1d8" fill-opacity="0.501961" points="132,131 149,138 130,89" />
<polygon fill="#390d00" fill-opacity="0.501961" points="108,40 103,35 90,46" />
<polygon fill="#5eb7f4" fill-opacity="0.501961" points="107,45 111,51 101,49" />
<polygon fill="#845d43" fill-opacity="0.501961" points="116,88 118,46 126,58" />
<polygon fill="#ffca8b" fill-opacity="0.501961" points="83,117 83,153 90,130" />
</g>
</svg>