<svg xmlns="http://www.w3.org/2000/svg" version="1.1" width="1024" height="682">
<rect x="0" y="0" width="1024" height="682" fill="#8f6c59" />
<g transform="scale(4.266667) translate(0.5 0.5)">
<polygon fill="#ffcc90" fill-opacity="0.501961" points="118,86 -16,0 255,-1" />
<polygon fill="#2e2f3b" fill-opacity="0.501961" points="247,162 -16,83 255,79" />
<polygon fill="#212d3b" fill-opacity="0.501961" points="95,91 -16,52 5,175" />
<polygon fill="#dd713f" fill-opacity="0.501961" points="122,175 51,102 195,102" />
<polygon fill="#1b3750" fill-opacity="0.501961" points="255,56 84,101 255,102" />
<polygon fill="#fc8a4a" fill-opacity="0.501961" points="83,82 176,82 98,27" />
<polygon fill="#69382a" fill-opacity="0.501961" points="107,175 81,112 -16,155" />
<polygon fill="#4f352c" fill-opacity="0.501961" points="242,175 247,104 152,154" />
<polygon fill="#a88976" fill-opacity="0.501961" points="228,-16 135,73 255,33" />
<polygon fill="#ab8972" fill-opacity="0.501961" points="12,-16 -16,34 104,75" />
<polygon fill="#d7b98e" fill-opacity="0.501961" points="112,53 37,-11 221,-16" />
<polygon fill="#b56b48" fill-opacity="0.501961" points="31,106 113,175 164,103" />
<polygon fill="#0a314d" fill-opacity="0.501961" points="-16,103 -16,74 92,102" />
<polygon fill="#885747" fill-opacity="0.501961" points="148,101 224,101 141,175" />
<polygon fill="#75555a" fill-opacity="0.501961" points="219,80 134,84 255,41" />
<polygon fill="#284154" fill-opacity="0.501961" points="83,103 149,83 19,83" />
<polygon fill="#d77d49" fill-opacity="0.501961" points="123,151 95,106 142,106" />
<polygon fill="#74574b" fill-opacity="0.501961" points="-16,106 88,101 74,145" />
<polygon fill="#de8956" fill-opacity="0.501961" points="195,42 35,44 128,83" />
<polygon fill="#4a3d35" fill-opacity="0.501961" points="60,151 6,175 -14,109" />
<polygon fill="#75575a" fill-opacity="0.501961" points="93,82 -16,41 12,77" />
<polygon fill="#a59b84" fill-opacity="0.501961" points="88,-7 20,39 -16,1" />
<polygon fill="#eba765" fill-opacity="0.501961" points="82,30 157,29 118,83" />
<polygon fill="#a49985" fill-opacity="0.501961" points="218,39 255,2 138,-16" />
<polygon fill="#af5c35" fill-opacity="0.501961" points="177,158 144,122 67,159" />
<polygon fill="#b47560" fill-opacity="0.501961" points="10,15 103,66 73,80" />
<polygon fill="#ac695e" fill-opacity="0.501961" points="191,36 138,69 183,81" />
<polygon fill="#1b3548" fill-opacity="0.501961" points="145,101 200,85 255,99" />
<polygon fill="#7c4c3f" fill-opacity="0.501961" points="168,112 147,175 207,142" />
<polygon fill="#ffa040" fill-opacity="0.501961" points="128,82 97,77 129,63" />
<polygon fill="#a7775d" fill-opacity="0.501961" points="186,102 76,102 149,122" />
<polygon fill="#756457" fill-opacity="0.501961" points="238,102 166,101 175,118" />
<polygon fill="#4d413e" fill-opacity="0.501961" points="182,119 255,112 222,175" />
<polygon fill="#96533f" fill-opacity="0.501961" points="82,110 105,134 60,175" />
<polygon fill="#69493d" fill-opacity="0.501961" points="54,171 11,115 72,126" />
<polygon fill="#a28971" fill-opacity="0.501961" points="255,-16 255,27 169,52" />
<polygon fill="#cb7242" fill-opacity="0.501961" points="104,109 143,111 117,175" />
<polygon fill="#675556" fill-opacity="0.501961" points="232,82 155,82 255,46" />
<polygon fill="#a28b70" fill-opacity="0.501961" points="-5,-12 -16,24 65,56" />
<polygon fill="#ceb290" fill-opacity="0.501961" points="17,-16 200,-2 113,19" />
<polygon fill="#112a3f" fill-opacity="0.501961" points="-10,86 42,102 -4,102" />
<polygon fill="#a57257" fill-opacity="0.501961" points="79,123 121,103 66,103" />
<polygon fill="#414b53" fill-opacity="0.501961" points="6,69 67,86 -8,86" />
<polygon fill="#664941" fill-opacity="0.501961" points="213,111 169,120 211,175" />
<polygon fill="#d6a576" fill-opacity="0.501961" points="170,25 94,53 68,19" />
<polygon fill="#e48556" fill-opacity="0.501961" points="91,59 155,57 94,78" />
<polygon fill="#a15c58" fill-opacity="0.501961" points="67,78 107,83 36,53" />
<polygon fill="#be8666" fill-opacity="0.501961" points="210,40 130,70 173,32" />
<polygon fill="#bea283" fill-opacity="0.501961" points="236,-16 153,11 175,37" />
<polygon fill="#ffa94a" fill-opacity="0.501961" points="104,69 117,82 141,77" />
</g>
</svg>